<?xml version="1.0" encoding="UTF-8" standalone="no"?>
<!-- Created with Inkscape (http://www.inkscape.org/) -->

<svg
   width="135.92348mm"
   height="166.65878mm"
   viewBox="0 0 135.92348 166.65878"
   version="1.1"
   id="svg1"
   inkscape:version="1.4.4 (dcaf3e7d9e, 2026-05-05)"
   sodipodi:docname="carrotdaikon.svg"
   xmlns:inkscape="http://www.inkscape.org/namespaces/inkscape"
   xmlns:sodipodi="http://sodipodi.sourceforge.net/DTD/sodipodi-0.dtd"
   xmlns:xlink="http://www.w3.org/1999/xlink"
   xmlns="http://www.w3.org/2000/svg"
   xmlns:svg="http://www.w3.org/2000/svg">
  <sodipodi:namedview
     id="namedview1"
     pagecolor="#ffffff"
     bordercolor="#000000"
     borderopacity="0.25"
     inkscape:showpageshadow="2"
     inkscape:pageopacity="0.0"
     inkscape:pagecheckerboard="0"
     inkscape:deskcolor="#d1d1d1"
     inkscape:document-units="mm"
     inkscape:zoom="0.94684023"
     inkscape:cx="201.19551"
     inkscape:cy="308.92224"
     inkscape:window-width="1920"
     inkscape:window-height="1038"
     inkscape:window-x="0"
     inkscape:window-y="0"
     inkscape:window-maximized="1"
     inkscape:current-layer="layer2" />
  <defs
     id="defs1">
    <linearGradient
       id="linearGradient14"
       inkscape:collect="always">
      <stop
         style="stop-color:#f8fcd0;stop-opacity:1;"
         offset="0.6914658"
         id="stop14" />
      <stop
         style="stop-color:#e6ffb7;stop-opacity:1;"
         offset="1"
         id="stop15" />
    </linearGradient>
    <linearGradient
       inkscape:collect="always"
       xlink:href="#linearGradient14"
       id="linearGradient15"
       x1="102.64206"
       y1="233.88504"
       x2="133.7225"
       y2="160.66409"
       gradientUnits="userSpaceOnUse"
       gradientTransform="translate(36.387979,2.9618122)" />
  </defs>
  <g
     inkscape:label="Layer 1"
     inkscape:groupmode="layer"
     id="layer1"
     style="display:inline"
     transform="rotate(11.484252,363.80545,-25.129079)">
    <path
       style="opacity:1;fill:#49ef35;fill-opacity:1;stroke-width:0.678;stroke-linejoin:bevel;stroke-opacity:0.772494"
       d="M 94.719105,119.84828 C 88.730745,111.13332 91.91776,99.619204 88.317151,90.360494 88.137044,89.897359 83.76518,79.731144 84.049184,79.690571 88.546209,79.048138 103.05627,100.62428 96.271095,74.840607 95.78206,72.982283 88.52327,55.828745 91.615127,55.828745 c 2.377977,0 6.290125,6.826474 6.983949,7.953941 11.360234,18.460394 3.034534,23.86598 -1.163992,41.709694 -0.631171,2.68248 -0.987448,18.24509 -2.715979,14.3559 z"
       id="path2" />
    <path
       style="opacity:1;fill:#dfff5e;fill-opacity:1;stroke-width:0.678;stroke-linejoin:bevel;stroke-opacity:0.772494"
       d="m 94.089317,121.63712 c 0.0077,-3.4219 0.269195,-6.90327 0.775994,-10.28193 1.095274,-7.30182 2.961602,-14.580215 4.073969,-21.921839 0.07197,-0.474982 0.49752,-5.237964 0.969994,-5.237964 3.442526,0 -2.405681,10.957063 0.969996,10.281925 10.75505,-2.151009 2.88105,-32.447846 9.11793,-39.57571 5.12662,-5.858997 4.28447,11.284929 5.81996,14.355895 7.9e-4,0.0013 3.18144,-2.80855 7.95394,-4.655966 1.64329,-0.636114 12.62671,-3.913576 9.89393,1.551988 -4.19262,8.38523 -12.13006,11.076529 -18.23587,17.459872 -2.49578,2.609228 -3.93483,7.637203 -5.23796,11.057922 -0.69902,1.834917 -3.44207,6.615337 -1.74599,5.625957 18.01818,-10.510605 4.88114,-2.229919 -3.29797,5.23796 -3.33331,3.04346 -11.855936,14.50586 -10.087932,18.04187"
       id="path3" />
    <path
       style="opacity:1;fill:#b7ff32;fill-opacity:1;stroke-width:0.678;stroke-linejoin:bevel;stroke-opacity:0.772494"
       d="m 85.38244,148.72295 c 5.782144,-5.60828 8.794344,-13.21311 13.579901,-19.59386 1.446609,-1.92882 21.843809,-19.08989 17.459869,-23.47383 -2.05509,-2.05509 -7.17795,3.81861 -7.17795,3.68597 0,-2.82445 3.75034,-7.24231 5.62596,-9.11793 4.5551,-4.555101 9.06961,-8.676314 15.13189,-11.057921 0.22098,-0.08681 7.90585,-2.324778 7.75994,-3.491976 -0.12068,-0.965497 -1.64324,-10.595115 -2.71598,-10.475923 -2.97041,0.330046 -5.20835,5.431959 -7.56594,5.431959 -0.97632,0 0.41856,-7.532285 0.194,-8.729935 -0.9078,-4.841584 -7.57661,-11.343587 -12.80391,-8.729938 -3.67624,1.838122 5.89226,37.427264 -6.78995,39.963714 -2.74725,0.54945 -2.98599,-16.941871 -4.65597,-14.937896 -3.572619,4.28715 -0.006,18.222226 -0.194,23.473836 -0.11075,3.10127 -0.0827,8.59067 -1.74598,11.25192 -2.364649,3.78344 -6.453696,6.16486 -8.923936,10.28192 -3.21617,5.36029 -2.48753,11.68228 -7.177944,15.51989 z"
       id="path4" />
    <path
       style="opacity:1;fill:#ffc318;fill-opacity:1;stroke-width:0.678;stroke-linejoin:bevel;stroke-opacity:0.772494"
       d="m 48.351156,199.83761 c 4.93272,-15.65608 7.202755,-32.86344 14.111068,-47.93612 5.570633,-12.15412 9.724543,-30.39774 20.336536,-38.59792 18.28362,-14.128255 30.66946,5.42625 23.03424,23.24175 -1.40472,3.27768 -2.38413,4.17202 -3.73284,7.5438 -7.912006,19.78002 -17.585939,35.56216 -28.847122,53.2583 -2.750333,4.32195 -6.23651,9.48493 -8.714389,14.94494 -2.489383,5.48536 -8.16108,11.12792 -10.792086,16.38993 -0.671271,1.34254 -3.564736,3.22574 -4.772861,3.52777 -10.041527,2.51038 -3.529711,-27.28492 -0.622546,-32.37245 z"
       id="path1"
       sodipodi:nodetypes="cssssssssc" />
    <path
       style="opacity:1;fill:#e49e1f;fill-opacity:1;stroke-width:0.678;stroke-linejoin:bevel;stroke-opacity:0.772494"
       d="m 58.258005,192.74563 c 8.148289,9.56526 5.047406,-1.26185 0,0 z"
       id="path19" />
    <path
       style="opacity:1;fill:#e49e1f;fill-opacity:1;stroke-width:0.678;stroke-linejoin:bevel;stroke-opacity:0.772494"
       d="m 63.499727,174.62425 c 2.477965,2.1625 5.674114,3.73341 8.536519,5.54125 7.421277,4.68712 -6.199315,-4.20571 -8.536519,-5.54125 z"
       id="path20" />
    <path
       style="opacity:1;fill:#e49e1f;fill-opacity:1;stroke-width:0.678;stroke-linejoin:bevel;stroke-opacity:0.772494"
       d="m 70.08932,161.74459 c 2.098318,0.0191 3.54226,1.29156 5.241724,2.39621 21.91146,14.24245 -14.017773,-12.63494 -5.241724,-2.39621 z"
       id="path21" />
    <path
       style="opacity:1;fill:#e49e1f;fill-opacity:1;stroke-width:0.678;stroke-linejoin:bevel;stroke-opacity:0.772494"
       d="m 79.224896,136.43456 c 1.344242,0.19004 2.159121,0.91732 3.294798,1.64739 2.172922,1.39688 5.057552,4.78097 7.338411,5.54125 3.687374,1.22913 -1.595106,-3.17572 -2.845509,-3.74408 -2.651006,-1.20501 -5.3526,-1.82117 -7.7877,-3.44456 z"
       id="path22" />
    <path
       style="opacity:1;fill:#ffdc9b;fill-opacity:1;stroke-width:0.678;stroke-linejoin:bevel;stroke-opacity:0.772494"
       d="m 73.293107,132.33954 c 0.694552,-2.5033 2.481802,-4.26861 4.119517,-6.17928 4.214625,-4.91706 8.123899,-11.16833 14.933255,-12.5302 1.004105,-0.20082 8.223871,0.24111 6.69422,2.91799 -3.181064,5.56686 -14.355603,6.48495 -19.567715,9.61221 -3.402552,2.04154 -3.519897,4.27972 -6.179277,6.17928 z"
       id="path23" />
  </g>
  <g
     inkscape:groupmode="layer"
     id="layer2"
     inkscape:label="Layer 2"
     style="display:inline"
     transform="rotate(12.99695,411.26606,-241.64948)">
    <path
       style="opacity:1;fill:url(#linearGradient15);stroke-width:0.678;stroke-linejoin:bevel;stroke-opacity:0.772494"
       d="m 117.32103,229.54441 c 0.29327,30.67245 42.88096,-1.77014 50.1124,-10.80944 13.08509,-16.35637 42.39736,-55.17408 16.6802,-71.53954 -3.29625,-2.09762 -17.49365,-2.12019 -21.12826,0 -14.99673,8.74809 -38.14492,62.29719 -45.66434,82.34898 z"
       id="path5"
       sodipodi:nodetypes="csssc" />
    <path
       style="opacity:1;fill:#87d583;fill-opacity:1;stroke-width:0.678;stroke-linejoin:bevel;stroke-opacity:0.772494"
       d="m 170.91635,150.9694 c -2.9498,-5.74272 -0.4743,-12.35462 1.67375,-18.11453 1.45697,-3.90686 3.37421,-7.2595 5.77219,-10.7331 23.05823,-33.401109 -11.14628,28.42403 7.60028,25.9742 5.86118,-0.76595 18.07406,-20.19816 20.42913,-19.74083 12.98724,2.52203 -15.67208,32.2552 -29.95977,29.48064 4.07042,-6.17405 6.061,-14.55619 7.9412,-21.90247 1.14988,-4.49277 3.65895,-8.8715 6.16657,-12.76388 21.02315,-32.632772 -0.94519,17.28269 -0.50309,18.8687 1.08232,3.8829 14.44097,0.76733 16.52739,-1.00525 2.95608,-2.51143 7.58708,-11.54404 8.62858,-7.80761 4.61063,16.54083 -20.23243,23.99379 -32.64108,21.58412"
       id="path6" />
    <path
       style="opacity:1;fill:#cbce7f;fill-opacity:1;stroke-width:0.678;stroke-linejoin:bevel;stroke-opacity:0.772494"
       d="m 179.2866,157.19065 -1.11788,2.39545"
       id="path14" />
    <path
       style="opacity:1;fill:#cbce7f;fill-opacity:1;stroke-width:0.678;stroke-linejoin:bevel;stroke-opacity:0.772494"
       d="m 156.12526,189.75765 c 2.02675,-1.93881 4.85722,6.26092 7.07874,4.5488 1.91363,-1.47483 -12.18421,-11.17328 -7.07874,-4.5488 z"
       id="path16" />
    <path
       style="opacity:1;fill:#cbce7f;fill-opacity:1;stroke-width:0.678;stroke-linejoin:bevel;stroke-opacity:0.772494"
       d="m 167.97988,167.97417 c 14.42734,11.51087 -2.81403,-7.50407 0,0 z"
       id="path17" />
    <path
       style="opacity:1;fill:#cbce7f;fill-opacity:1;stroke-width:0.678;stroke-linejoin:bevel;stroke-opacity:0.772494"
       d="m 141.08968,205.97348 c 2.81986,0.87278 4.49946,3.02426 6.53479,5.01421 6.12677,5.99017 -2.94763,-6.70835 -6.53479,-5.01421 z"
       id="path18" />
    <path
       style="opacity:1;fill:#feffee;fill-opacity:1;stroke-width:0.678;stroke-linejoin:bevel;stroke-opacity:0.772494"
       d="m 138.32104,200.01409 c 0.70626,-2.19681 1.5775,-4.2626 2.66832,-6.22608 0.53712,-0.96681 13.78383,-28.62028 14.97224,-23.86664 1.30027,5.2011 -16.98813,37.26937 -17.64056,30.09272 z"
       id="path24" />
    <path
       style="opacity:1;fill:#87d583;fill-opacity:1;stroke-width:0.678;stroke-linejoin:bevel;stroke-opacity:0.772494"
       d="m 172.76944,144.26077 c -1.79245,4.5006 4.88097,2.83719 8.1576,4.29347 1.77099,0.78711 4.01746,3.85254 5.66739,4.03587 2.01192,0.22354 3.91889,-1.382 4.63696,-3.17717 1.7734,-4.43352 -15.21345,-6.67774 -18.54782,-6.01087 -1.19398,0.2388 -1.51724,1.25947 0.0859,0.8587 z"
       id="path25" />
  </g>
</svg>
