<?xml version="1.0" encoding="UTF-8" standalone="no"?>
<!-- Created with Inkscape (http://www.inkscape.org/) -->

<svg
   width="140mm"
   height="140mm"
   viewBox="0 0 140 140"
   version="1.1"
   id="svg1"
   inkscape:version="1.4.4 (dcaf3e7d9e, 2026-05-05)"
   sodipodi:docname="egg-glimmer.svg"
   xmlns:inkscape="http://www.inkscape.org/namespaces/inkscape"
   xmlns:sodipodi="http://sodipodi.sourceforge.net/DTD/sodipodi-0.dtd"
   xmlns:xlink="http://www.w3.org/1999/xlink"
   xmlns="http://www.w3.org/2000/svg"
   xmlns:svg="http://www.w3.org/2000/svg">
  <sodipodi:namedview
     id="namedview1"
     pagecolor="#ffffff"
     bordercolor="#000000"
     borderopacity="0.25"
     inkscape:showpageshadow="2"
     inkscape:pageopacity="0.0"
     inkscape:pagecheckerboard="0"
     inkscape:deskcolor="#d1d1d1"
     inkscape:document-units="mm"
     showgrid="true"
     inkscape:zoom="0.95990688"
     inkscape:cx="157.82781"
     inkscape:cy="316.1765"
     inkscape:window-width="1920"
     inkscape:window-height="1038"
     inkscape:window-x="0"
     inkscape:window-y="0"
     inkscape:window-maximized="1"
     inkscape:current-layer="layer1">
    <inkscape:grid
       id="grid4"
       units="mm"
       originx="0"
       originy="0"
       spacingx="1"
       spacingy="0.99999999"
       empcolor="#0099e5"
       empopacity="0.30196078"
       color="#0099e5"
       opacity="0.14901961"
       empspacing="45"
       enabled="true"
       visible="true" />
  </sodipodi:namedview>
  <defs
     id="defs1">
    <linearGradient
       id="linearGradient3"
       inkscape:collect="always">
      <stop
         style="stop-color:#fff299;stop-opacity:1;"
         offset="0"
         id="stop3" />
      <stop
         style="stop-color:#fff9e9;stop-opacity:1;"
         offset="1"
         id="stop4" />
    </linearGradient>
    <radialGradient
       inkscape:collect="always"
       xlink:href="#linearGradient3"
       id="radialGradient4"
       cx="118.98118"
       cy="137.49133"
       fx="118.98118"
       fy="137.49133"
       r="66.58152"
       gradientTransform="matrix(1,0,0,0.97585446,1.5948889,4.6868501)"
       gradientUnits="userSpaceOnUse" />
  </defs>
  <g
     inkscape:label="Layer 1"
     inkscape:groupmode="layer"
     id="layer1"
     transform="translate(-52.059948,-72.174833)">
    <path
       style="display:none;fill:url(#radialGradient4);fill-opacity:1;stroke:#ff960c;stroke-width:0.678;stroke-linecap:butt;stroke-linejoin:bevel;stroke-dasharray:none;stroke-dashoffset:0;stroke-opacity:0.772494"
       d="m 132.91691,75.713552 c 36.97017,11.040694 40.38832,25.612858 49.79234,56.103078 5.1548,16.71315 7.64738,36.09002 -2.8251,51.93541 -2.50292,3.78706 -9.72143,4.62017 -13.77234,6.0912 -12.09195,4.39098 -23.99181,10.73484 -36.01999,13.46473 -14.64501,3.3238 -53.429874,-9.87895 -61.445886,-19.23534 C 64.563055,179.30705 51.195612,124.15681 54.520449,116.10776 60.50083,101.62996 112.9775,65.369767 132.91691,75.713552 Z"
       id="path1" />
    <path
       style="display:none;fill:#ff8f12;fill-opacity:1;stroke-width:0.264583"
       d="m 111.04387,115.18416 c 11.85916,-3.53593 20.7941,1.00893 25.83536,4.33798 6.0926,4.02331 9.50245,14.25114 8.75736,21.15809 -1.53556,14.23458 -10.86075,19.31657 -14.25492,21.31727 -2.38699,1.40702 -10.4079,3.66971 -13.42472,2.6641 -12.35091,-4.11697 -21.164287,-8.62826 -23.053373,-23.16208 -0.278312,-2.14122 0.954222,-3.62586 0.849654,-6.84482 -0.03533,-1.08763 1.98312,-7.48821 3.050258,-8.82214 2.710071,-3.38758 8.033531,-9.59669 12.240381,-10.6484 z"
       id="path3"
       sodipodi:nodetypes="csssssssc" />
    <path
       style="display:inline;fill:#fff9f1;fill-opacity:1;stroke:none;stroke-width:0.678;stroke-linecap:butt;stroke-linejoin:bevel;stroke-dasharray:none;stroke-dashoffset:0;stroke-opacity:0.772494"
       d="m 104.04494,126.68031 c -2.14612,1.65325 -3.89417,4.10862 -4.095788,6.93133 -0.157051,2.19871 -0.787651,4.40111 -0.787651,6.61627 0,1.74848 2.384859,10.75797 5.356029,6.30121 0.49664,-0.74496 7.9622,-29.6894 -0.47259,-19.84881 z"
       id="path8" />
  </g>
</svg>
