<?xml version="1.0" encoding="UTF-8" standalone="no"?>
<!-- Created with Inkscape (http://www.inkscape.org/) -->

<svg
   width="135mm"
   height="135mm"
   viewBox="0 0 135 135"
   version="1.1"
   id="svg1"
   inkscape:version="1.4.4 (dcaf3e7d9e, 2026-05-05)"
   sodipodi:docname="egg-glimmer.svg"
   xmlns:inkscape="http://www.inkscape.org/namespaces/inkscape"
   xmlns:sodipodi="http://sodipodi.sourceforge.net/DTD/sodipodi-0.dtd"
   xmlns:xlink="http://www.w3.org/1999/xlink"
   xmlns="http://www.w3.org/2000/svg"
   xmlns:svg="http://www.w3.org/2000/svg">
  <sodipodi:namedview
     id="namedview1"
     pagecolor="#ffffff"
     bordercolor="#000000"
     borderopacity="0.25"
     inkscape:showpageshadow="2"
     inkscape:pageopacity="0.0"
     inkscape:pagecheckerboard="0"
     inkscape:deskcolor="#d1d1d1"
     inkscape:document-units="mm"
     showgrid="true"
     inkscape:zoom="1.5166833"
     inkscape:cx="280.54637"
     inkscape:cy="287.13971"
     inkscape:window-width="1920"
     inkscape:window-height="1038"
     inkscape:window-x="0"
     inkscape:window-y="0"
     inkscape:window-maximized="1"
     inkscape:current-layer="layer1">
    <inkscape:grid
       id="grid4"
       units="mm"
       originx="0"
       originy="0"
       spacingx="1"
       spacingy="0.99999999"
       empcolor="#0099e5"
       empopacity="0.30196078"
       color="#0099e5"
       opacity="0.14901961"
       empspacing="45"
       enabled="true"
       visible="true" />
  </sodipodi:namedview>
  <defs
     id="defs1">
    <linearGradient
       id="linearGradient3"
       inkscape:collect="always">
      <stop
         style="stop-color:#fff299;stop-opacity:1;"
         offset="0"
         id="stop3" />
      <stop
         style="stop-color:#fff9e9;stop-opacity:1;"
         offset="1"
         id="stop4" />
    </linearGradient>
    <radialGradient
       inkscape:collect="always"
       xlink:href="#linearGradient3"
       id="radialGradient4"
       cx="118.98118"
       cy="137.49133"
       fx="118.98118"
       fy="137.49133"
       r="66.58152"
       gradientTransform="matrix(1,0,0,0.97585446,0.74724074,4.263026)"
       gradientUnits="userSpaceOnUse" />
  </defs>
  <g
     inkscape:label="Layer 1"
     inkscape:groupmode="layer"
     id="layer1"
     transform="translate(-52.059948,-72.174833)">
    <path
       style="display:none;fill:url(#radialGradient4);fill-opacity:1;stroke:#ff960c;stroke-width:0.678;stroke-linecap:butt;stroke-linejoin:bevel;stroke-dasharray:none;stroke-dashoffset:0;stroke-opacity:0.772494"
       d="m 132.06926,75.289728 c 36.97017,11.040694 44.35259,24.66269 49.79234,56.103082 2.96737,17.15064 2.54337,22.3821 -4.42922,39.68578 -1.69662,4.21045 -7.57461,14.06585 -12.89182,19.24533 -12.99645,7.82809 -23.26821,9.83034 -35.29639,12.56023 -14.64501,3.3238 -53.429872,-9.87895 -61.445884,-19.23534 C 63.715407,178.88323 52.171619,144.02472 56.735209,121.37127 63.785546,86.373716 112.12985,64.945943 132.06926,75.289728 Z"
       id="path1"
       sodipodi:nodetypes="csscsssc" />
    <path
       style="display:none;fill:#ff8f12;fill-opacity:1;stroke-width:0.264583"
       d="m 109.98431,115.39607 c 11.85916,-3.53593 20.7941,1.00893 25.83536,4.33798 6.0926,4.02331 9.50245,14.25114 8.75736,21.15809 -1.53556,14.23458 -10.86075,19.31657 -14.25492,21.31727 -2.38699,1.40702 -10.4079,3.66971 -13.42472,2.6641 -12.35091,-4.11697 -21.164287,-8.62826 -23.053373,-23.16208 -0.278312,-2.14122 0.954222,-3.62586 0.849654,-6.84482 -0.03533,-1.08763 1.98312,-7.48821 3.050258,-8.82214 2.710071,-3.38758 8.033531,-9.59669 12.240381,-10.6484 z"
       id="path3"
       sodipodi:nodetypes="csssssssc" />
    <path
       style="display:inline;opacity:0.88;mix-blend-mode:normal;fill:#fff9f1;fill-opacity:1;stroke:none;stroke-width:0.678;stroke-linecap:butt;stroke-linejoin:bevel;stroke-dasharray:none;stroke-dashoffset:0;stroke-opacity:0.772494"
       d="m 105.47934,125.88969 c -2.14612,1.65325 -3.89417,4.10862 -4.09578,6.93133 -0.15706,2.19871 -0.78766,4.40111 -0.78766,6.61627 0,1.74848 2.38486,10.75797 5.35603,6.30121 0.49664,-0.74496 7.9622,-29.6894 -0.47259,-19.84881 z"
       id="path8" />
  </g>
</svg>
