<?xml version="1.0" encoding="UTF-8" standalone="no"?>
<!-- Created with Inkscape (http://www.inkscape.org/) -->

<svg
   width="141.89682mm"
   height="132.29532mm"
   viewBox="0 0 141.89682 132.29532"
   version="1.1"
   id="svg1"
   inkscape:version="1.4.4 (dcaf3e7d9e, 2026-05-05)"
   sodipodi:docname="garlicparm.svg"
   xmlns:inkscape="http://www.inkscape.org/namespaces/inkscape"
   xmlns:sodipodi="http://sodipodi.sourceforge.net/DTD/sodipodi-0.dtd"
   xmlns="http://www.w3.org/2000/svg"
   xmlns:svg="http://www.w3.org/2000/svg">
  <sodipodi:namedview
     id="namedview1"
     pagecolor="#ffffff"
     bordercolor="#000000"
     borderopacity="0.25"
     inkscape:showpageshadow="2"
     inkscape:pageopacity="0.0"
     inkscape:pagecheckerboard="0"
     inkscape:deskcolor="#d1d1d1"
     inkscape:document-units="mm"
     inkscape:zoom="0.32899858"
     inkscape:cx="-110.94273"
     inkscape:cy="405.77683"
     inkscape:window-width="1920"
     inkscape:window-height="1038"
     inkscape:window-x="0"
     inkscape:window-y="0"
     inkscape:window-maximized="1"
     inkscape:current-layer="layer3" />
  <defs
     id="defs1" />
  <g
     inkscape:label="Layer 1"
     inkscape:groupmode="layer"
     id="layer1"
     transform="translate(-36.972541,-60.161634)">
    <path
       style="fill:#fff9d0;fill-opacity:1;stroke-width:0.678;stroke-linejoin:bevel;stroke-opacity:0.772494"
       d="m 48.46827,167.172 c -1.279869,5.73737 5.947206,3.85921 8.706874,7.25573 1.471149,1.81064 0.567714,6.08844 2.031603,6.82038 6.437085,3.21854 14.726549,5.69675 17.41375,-2.90229 0.509712,-1.63107 1.55883,-3.72374 1.160918,-5.51435 -1.446792,-6.51056 -21.679098,-11.0002 -26.846199,-8.41665"
       id="path19" />
    <path
       style="fill:#87d583;stroke-width:0.678;stroke-linejoin:bevel;stroke-opacity:0.772494"
       d="m 96.978014,161.89586 4.466096,-30.14612"
       id="path4" />
    <path
       style="fill:#87d583;stroke-width:0.678;stroke-linejoin:bevel;stroke-opacity:0.772494"
       d="M 69.198418,151.61946 86.387833,134.43005"
       id="path6" />
    <path
       style="fill:#ffe680;stroke-width:0.678;stroke-linejoin:bevel;stroke-opacity:0.772494"
       d="M 128.03911,68.537286 C 112.86862,63.480456 95.738073,58.65559 79.776517,60.603709 70.762473,93.655207 56.903929,126.14289 47.160703,159.11228 c 12.333209,7.47068 29.057756,10.13735 43.634673,10.13735 12.479704,-6.2052 23.005944,-17.58518 34.158454,-24.68224"
       id="path7" />
    <path
       style="fill:#ffd961;fill-opacity:1;stroke-width:0.678;stroke-linejoin:bevel;stroke-opacity:0.772494"
       d="m 127.59835,68.978038 c -7.42014,12.698759 -12.32921,27.046846 -15.20602,41.430902 -3.86676,9.56674 -9.49832,19.34964 -10.79847,29.75091 -3.000092,9.3357 -8.227893,18.4406 -10.137353,27.9879 8.265337,-9.27858 24.551393,-14.0984 31.734303,-22.47847"
       id="path8" />
    <path
       style="fill:#ffeeaa;stroke-width:0.678;stroke-linejoin:bevel;stroke-opacity:0.772494"
       d="M 84.065241,66.233219 C 77.909652,80.827712 74.9975,96.523481 70.401745,111.62382 c -1.764337,5.7971 -4.101896,11.24609 -5.326448,17.36885 -1.072153,5.36077 -4.144452,10.04571 -6.252787,15.053 -1.082146,2.5701 -5.312119,9.29205 -3.705355,12.50558 0.769689,1.53937 10.139294,5.18577 10.652895,3.47377 3.9584,-13.19467 2.120445,-28.4632 5.789618,-41.91683 3.737906,-13.70566 14.172488,-38.539648 12.505573,-51.874971 z"
       id="path11" />
    <path
       style="fill:#ffeeaa;stroke-width:0.678;stroke-linejoin:bevel;stroke-opacity:0.772494"
       d="m 38.705631,166.08759 c 9.107966,-9.18466 19.025975,2.22807 10.254104,2.74406 -4.454289,0.26202 -8.011581,-2.74406 -11.987194,-2.74406"
       id="path13" />
    <path
       style="fill:#ffeeaa;stroke-width:0.678;stroke-linejoin:bevel;stroke-opacity:0.772494"
       d="m 48.81531,173.88649 c 2.59153,-0.50289 5.088657,-1.41747 7.510047,-2.45521 8.198768,-3.51376 10.53439,5.35225 9.531984,6.35466 -2.83125,2.83125 -20.139723,4.36106 -17.042031,-3.89945 z"
       id="path14" />
    <path
       style="fill:#ffeeaa;stroke-width:0.678;stroke-linejoin:bevel;stroke-opacity:0.772494"
       d="m 74.089508,178.50805 c -0.6437,-2.09079 -2.022647,-4.12713 -2.166358,-6.35465 -0.316447,-4.90491 -1.28464,-5.90645 3.177325,-6.06581 1.540293,-0.055 4.178687,-1.33185 4.62157,0.14443 1.059918,3.53306 3.045256,7.28296 3.755022,10.8318 0.665967,3.32983 -8.458914,2.74434 -9.387559,1.44423 z"
       id="path15" />
    <path
       style="fill:#ffeeaa;stroke-width:0.678;stroke-linejoin:bevel;stroke-opacity:0.772494"
       d="m 58.924988,189.91755 c 0.589219,-1.71285 1.038228,-6.14483 3.032906,-6.6435 1.992897,-0.49823 4.637738,0.39365 6.499079,0.72212 1.299612,0.22934 8.039272,-0.33732 9.098711,0.72212 5.355323,5.35532 -19.381909,11.20897 -18.630696,5.19926 z"
       id="path16" />
    <path
       style="fill:#ffeeaa;stroke-width:0.678;stroke-linejoin:bevel;stroke-opacity:0.772494"
       d="m 70.53942,149.81588 c -0.550812,27.7463 19.318412,-2.40569 7.732575,-2.40569 -2.723848,0 -5.673174,0.64049 -7.732575,2.40569 z"
       id="path18" />
  </g>
  <g
     inkscape:groupmode="layer"
     id="layer3"
     inkscape:label="Layer 2"
     transform="translate(-65.33752,-93.144167)">
    <path
       style="fill:#f4ebc7;fill-opacity:1;stroke-width:0.678;stroke-linejoin:bevel;stroke-opacity:0.772494"
       d="m 169.42798,153.99846 c 28.30368,0.62628 34.46323,43.11868 5.93442,46.28855"
       id="path22" />
    <path
       style="fill:#fbf1c8;fill-opacity:1;stroke-width:0.678;stroke-linejoin:bevel;stroke-opacity:0.772494"
       d="m 158.33909,152.79218 c -4.25464,3.15349 -8.19193,6.71609 -12.27044,10.08529 -10.34998,8.54999 -18.11817,19.70168 -7.90014,29.91971 1.95893,1.95893 1.60901,4.49346 4.37029,6.21926 4.53632,2.8352 9.94085,1.42688 14.45559,3.36176 3.48121,1.49195 10.16971,2.79918 13.95132,1.34471 21.00374,-8.07836 7.04845,-38.28309 -2.18515,-50.59455 -1.45177,-1.9357 -1.61018,-5.6443 -3.19367,-7.22779 -0.95825,-0.95826 -0.80496,2.9238 -2.01706,3.52985 -0.95778,0.47889 -2.84539,-3.71005 -3.86603,-2.68941 -1.18306,1.18305 -1.79331,4.03246 -1.34471,6.05117 z"
       id="path20" />
    <path
       style="fill:#fff7d7;fill-opacity:1;stroke-width:0.678;stroke-linejoin:bevel;stroke-opacity:0.772494"
       d="m 175.85875,201.59264 c 23.30942,-2.58994 10.6725,-45.3574 -8.01148,-44.80495 10.2557,11.5012 -4.16774,37.8454 8.01148,44.80495 z"
       id="path21" />
    <path
       style="fill:#de8787;fill-opacity:1;stroke-width:0.678;stroke-linejoin:bevel;stroke-opacity:0.772494"
       d="m 172.07044,179.45629 3.79274,1.79656"
       id="path23" />
    <path
       style="fill:#fdf8e5;fill-opacity:1;stroke-width:0.787892;stroke-linejoin:bevel;stroke-opacity:0.772494"
       d="m 162.41829,158.27128 c -5.72733,-1.83213 -11.87256,42.57654 -3.67728,36.97487 3.90223,-2.66726 3.04497,-30.5185 3.67728,-36.97487 z"
       id="path24" />
    <path
       style="fill:#feffd5;fill-opacity:1;stroke-width:0.678;stroke-linejoin:bevel;stroke-opacity:0.772494"
       d="m 182.81754,198.29609 c 2.59728,-4.12528 5.48936,-8.12129 8.56478,-11.91192 1.83886,-2.2665 5.05488,-6.3176 7.77721,-7.67877 0.99083,-0.49541 2.83103,1.28038 3.44559,1.77203 5.38708,4.30966 6.11114,10.64643 1.96892,16.34198 -4.7532,6.53564 -23.54774,8.64164 -21.55961,0.68912"
       id="path25" />
    <path
       style="fill:#feffc1;fill-opacity:1;stroke:none;stroke-width:0.678;stroke-linejoin:bevel;stroke-opacity:1"
       d="m 173.40838,193.01374 c -0.33022,5.41414 -3.13222,14.53164 1.06537,19.32889 5.06684,5.79067 28.41163,5.5332 24.35136,-2.58734 -0.23636,-0.47271 -2.19725,-0.76567 -2.73953,-1.21756 -1.46107,-1.21757 -1.10475,-3.34151 -2.89172,-4.41369 -6.14468,-3.6868 -15.19416,-4.98855 -19.78548,-11.1103 z"
       id="path26" />
    <path
       style="fill:#e9eab1;fill-opacity:1;stroke:none;stroke-width:0.678;stroke-linejoin:bevel;stroke-opacity:1"
       d="m 205.13161,201.28909 -13.52273,1.404"
       id="path29" />
    <path
       style="fill:#feffc1;fill-opacity:1;stroke-width:0.678;stroke-linejoin:bevel;stroke-opacity:0.772494"
       d="m 173.1805,194.30216 c 9.47574,-1.9517 26.25339,7.49092 26.25339,17.88827"
       id="path27"
       sodipodi:nodetypes="cc" />
  </g>
</svg>
