<?xml version="1.0" encoding="UTF-8" standalone="no"?>
<!-- Created with Inkscape (http://www.inkscape.org/) -->

<svg
   width="75.79615mm"
   height="69.191467mm"
   viewBox="0 0 75.79615 69.191467"
   version="1.1"
   id="svg1"
   xmlns:xlink="http://www.w3.org/1999/xlink"
   xmlns="http://www.w3.org/2000/svg"
   xmlns:svg="http://www.w3.org/2000/svg">
  <defs
     id="defs1">
    <linearGradient
       id="linearGradient29">
      <stop
         style="stop-color:#f09c2b;stop-opacity:1;"
         offset="0.5414781"
         id="stop29" />
      <stop
         style="stop-color:#ffc034;stop-opacity:1;"
         offset="1"
         id="stop30" />
    </linearGradient>
    <linearGradient
       xlink:href="#linearGradient29"
       id="linearGradient30"
       x1="55.417175"
       y1="175.66507"
       x2="105.54248"
       y2="225.79037"
       gradientUnits="userSpaceOnUse"
       gradientTransform="translate(-11.216683,-39.881539)" />
  </defs>
  <g
     id="layer2"
     style="display:inline"
     transform="translate(-28.91093,-126.25045)">
    <path
       style="fill:#e48329;fill-opacity:1;stroke-width:0.264583"
       d="m 47.97337,136.85416 c -2.92425,3.88674 -9.93091,0.30871 -13.049219,1.57813 -1.796184,0.73083 2.02468,4.36201 1.633169,4.52138 -1.192005,0.48499 -5.005747,-1.02373 -5.167084,1.06624 -0.07854,1.01734 2.626115,1.06023 2.688295,2.01735 0.09093,1.40011 -5.227845,0.91698 -5.167083,1.06624 0.412065,1.01224 7.542103,4.50792 8.526308,5.65678"
       id="path15" />
    <path
       style="fill:url(#linearGradient30);fill-opacity:1;stroke-width:0.264583"
       d="M 68.161804,126.31053 C 49.019821,130.01722 40.548815,137.17927 35.408585,155.61643 23.56256,198.10611 81.240679,207.6838 98.996687,179.08925 117.93743,148.58682 86.396465,113.32664 53.646538,130.98067"
       id="path16" />
    <path
       style="fill:#e48329;fill-opacity:1;stroke-width:0.264583"
       d="m 48.774429,146.14259 c 5.354414,8.66357 4.317532,7.11276 8.250413,11.66662 3.508637,4.06263 8.273712,7.36656 12.415841,10.71971 1.846644,1.4949 17.953429,7.63353 15.830291,5.90997 -7.445815,-6.04451 -37.394795,-26.10291 -39.04805,-32.71593"
       id="path18" />
    <path
       style="fill:#e48329;fill-opacity:1;stroke-width:0.264583"
       d="m 45.566297,148.89256 c -0.528442,6.59215 5.920576,16.00143 10.720091,20.26767 6.418334,5.70518 11.893698,11.13554 20.435173,13.73512 2.62985,0.80038 5.610481,1.50751 8.37507,1.50751 0.783667,0 3.105288,0.35757 2.345021,0.1675 -3.600215,-0.90005 -7.448971,-1.03883 -10.887591,-2.51252 -9.018482,-3.86506 -30.987764,-22.47538 -30.987764,-33.16528 z"
       id="path21" />
    <path
       style="fill:#e48329;fill-opacity:1;stroke-width:0.264583"
       d="m 55.189047,133.56447 c 3.034829,2.13527 6.557539,3.45175 9.948873,5.03437 2.343057,1.09343 4.70049,1.96896 7.07209,2.99665 2.42688,1.05165 4.686816,2.70301 6.952226,3.83571 2.845089,1.42255 -5.230323,-3.64617 -8.031017,-5.15423 -2.685335,-1.44595 -12.97805,-8.40628 -15.942172,-6.7125 z"
       id="path23" />
    <path
       style="fill:#ffbc6b;fill-opacity:1;stroke-width:0.264583"
       d="m 85.754862,155.61981 c 1.980371,1.8139 3.225395,3.85299 4.554905,6.11316 1.01429,1.7243 1.75688,3.3939 2.63705,5.15424 1.28565,2.57128 3.09697,4.81182 4.07544,7.55155 0.43087,1.20643 0.23974,5.11678 0.23974,3.83571 0,-10.43901 -4.92571,-19.59282 -13.424989,-24.69238"
       id="path24" />
    <path
       style="fill:#e48329;fill-opacity:1;stroke-width:0.264583"
       d="m 39.858734,159.07192 c -2.138013,6.22131 0.06056,13.51242 4.011158,18.54046 2.051277,2.61072 4.23484,5.33752 6.914577,7.34732 1.869985,1.40249 15.931997,5.8174 17.776331,3.97306 0.173252,-0.17325 -0.46958,-0.15122 -0.713094,-0.17827 -1.400424,-0.1556 -2.734805,-0.35688 -4.100296,-0.7131 -3.318369,-0.86566 -7.340441,-1.9069 -10.1616,-3.92202 -5.7345,-4.09607 -13.727076,-17.40705 -13.727076,-25.04745 z"
       id="path25" />
    <path
       style="fill:#e48329;fill-opacity:1;stroke-width:0.264583"
       d="m 45.385219,160.76552 c 0.646329,3.58601 2.845308,6.28602 4.724254,9.27023 2.601172,4.13127 6.753069,7.45717 10.874695,9.98333 1.720369,1.05442 3.654518,1.63411 5.348211,2.76324 0.288308,0.1922 1.027864,0.85331 0.891368,0.53482 -1.323711,-3.08866 -8.641932,-3.91954 -11.142107,-5.34821 -6.305214,-3.60298 -9.934138,-12.36387 -11.944337,-18.89701"
       id="path26" />
    <path
       style="fill:#ffbc6b;fill-opacity:1;stroke-width:0.264583"
       d="m 65.084464,130.90467 c 3.6128,-0.33614 7.316671,0.55927 10.874695,1.24792 5.873601,1.13682 10.691058,3.70416 15.242398,7.04181 0.44945,0.32959 5.99452,4.7019 6.23959,4.45684 0.86839,-0.8684 -6.01454,-6.21999 -7.04182,-7.04181 -6.832241,-5.4658 -16.646127,-7.87194 -25.314863,-5.70476 z"
       id="path27" />
  </g>
</svg>
