<?xml version="1.0" encoding="UTF-8" standalone="no"?>
<!-- Created with Inkscape (http://www.inkscape.org/) -->

<svg
   width="97.943375mm"
   height="86.462875mm"
   viewBox="0 0 97.943375 86.462875"
   version="1.1"
   id="svg1"
   xmlns:xlink="http://www.w3.org/1999/xlink"
   xmlns="http://www.w3.org/2000/svg"
   xmlns:svg="http://www.w3.org/2000/svg">
  <defs
     id="defs1">
    <linearGradient
       id="linearGradient14">
      <stop
         style="stop-color:#ff321c;stop-opacity:1;"
         offset="0"
         id="stop14" />
      <stop
         style="stop-color:#cc540d;stop-opacity:1;"
         offset="1"
         id="stop15" />
    </linearGradient>
    <linearGradient
       xlink:href="#linearGradient14"
       id="linearGradient15"
       x1="72.562752"
       y1="124.76296"
       x2="170.34047"
       y2="124.76296"
       gradientUnits="userSpaceOnUse"
       gradientTransform="translate(-11.920316,-46.597601)" />
  </defs>
  <g
     id="layer1"
     style="display:inline"
     transform="translate(-60.539242,-32.199722)">
    <path
       style="fill:url(#linearGradient15);stroke-width:0.264583"
       d="M 91.393784,41.560458 C 25.8372,75.672099 76.80442,137.31075 135.32272,113.21497 c 29.15757,-12.00605 30.971,-50.521601 3.95043,-65.720675 -17.2338,-9.694007 -28.30855,-13.24152 -47.879366,-5.933837 z"
       id="path1" />
    <path
       style="fill:#63d853;fill-opacity:1;stroke-width:0.264583"
       d="m 110.47989,42.357995 c -25.371384,6.757323 -31.08155,10.928902 -4.98331,7.666622 -1.64609,19.706612 -6.157556,10.819642 6.51663,5.749972 5.72272,-0.0216 12.45078,1.55378 17.44157,2.10832 -5.20034,-0.23508 -15.60424,-14.183255 -4.79164,-14.183255"
       id="path2" />
    <path
       style="fill:#39bf29;fill-opacity:1;stroke-width:0.264583"
       d="m 102.0466,46.574638 c -3.674256,-2.947027 -7.675706,-4.024979 -12.266596,-4.024979 -1.65883,0 14.183256,4.495334 14.183256,-3.449979 0,-1.396836 -0.76775,-6.89996 -1.72499,-6.89996 -2.17597,0 2.85732,3.284162 4.21664,4.983305 2.61316,3.266451 6.43377,6.308701 9.58328,9.008279"
       id="path3" />
    <path
       style="fill:#28c376;fill-opacity:1;stroke-width:0.264583"
       d="m 108.75489,45.424642 c 0.94015,-0.271978 9.19995,-12.883805 9.19995,-12.266596 0,5.965994 -2.75747,9.584851 3.06665,13.224925 4.08133,2.550827 10.68131,1.806202 10.34995,1.916655 -4.30591,1.435301 -11.47299,1.720091 -15.71659,2.491653"
       id="path4" />
    <path
       style="fill:#e2b148;fill-opacity:1;stroke-width:0.252584"
       d="m 72.571606,59.289509 c -6.13259,-0.37953 -10.785398,11.33571 -11.848485,20.20223 -1.799307,15.00687 9.929841,29.724471 21.041271,32.372271 1.510745,0.36001 5.209569,3.22488 6.945662,2.19061 0.60211,-0.3587 -8.864711,-2.9398 -12.665613,-8.76242 C 73.40184,101.24401 61.754874,62.511489 72.571606,59.289509 Z"
       id="path5" />
    <path
       style="fill:#ffe46a;fill-opacity:1;stroke-width:0.237773"
       d="m 82.587962,46.426754 c -7.575111,5.428268 -13.287127,9.689565 -16.424452,15.891395 -2.518735,4.97901 -2.41493,5.12446 -2.651107,9.87631 -0.134929,2.71472 4.860122,17.7435 5.893784,12.27286 4.286064,-22.68392 8.388887,-29.55943 13.181775,-38.040565 z"
       id="path6" />
    <path
       style="fill:#c23b00;fill-opacity:1;stroke-width:0.264583"
       d="m 155.64726,66.307469 c -3.86387,12.88071 -8.3468,20.71052 -16.54935,28.91307 -5.5928,5.592801 -15.21716,12.761341 -22.28019,16.185841 -2.19445,1.06398 -16.27832,6.85703 -13.83958,6.87048 21.97429,0.12114 47.82776,-4.24259 54.51371,-30.005111 2.32809,-8.97067 0.0729,-15.14719 -1.84459,-21.96428 z"
       id="path7" />
  </g>
</svg>
